<svg width="121" height="164" viewBox="0 0 121 164" fill="none" xmlns="http://www.w3.org/2000/svg">
<path d="M2 63C2 53.6112 9.61116 46 19 46H33V149C33 157.284 26.2843 164 18 164H2V63Z" fill="#41B6E6"/>
<path d="M103.104 61.6451C102.291 84.7247 79.8114 106.012 54.1392 105.108C41.2268 104.654 32.2967 99.7875 26.545 92.9781C20.6324 85.9782 17.0253 75.6427 17.4795 62.7354C18.4053 36.43 36.2625 16.6387 58.9439 17.4369C84.9189 18.3511 103.906 38.8562 103.104 61.6451Z" fill="#11111F" stroke="#41B6E6" stroke-width="31"/>
<g filter="url(#filter0_d_18_30)">
<path d="M76.4144 60.7586C76.091 69.9482 67.8581 77.8427 58.6356 77.5181C49.4131 77.1935 44.2464 70.0029 44.5698 60.8133C44.8932 51.6236 51.0787 43.207 60.3012 43.5316C69.5237 43.8561 76.7378 51.5689 76.4144 60.7586Z" fill="#41B6E6"/>
<path d="M60.924 60.2134C60.92 60.3279 60.8174 60.8707 60.1996 61.4563C60.1513 61.502 60.1032 61.5446 60.0555 61.5842C60.0559 61.5119 60.0574 61.4366 60.0602 61.3584C60.0834 60.6975 60.2134 60.084 60.4013 59.5768C60.4376 59.4789 60.4745 59.389 60.5111 59.3069C60.7827 59.5364 60.9359 59.8751 60.924 60.2134Z" stroke="#41B6E6" stroke-width="31"/>
</g>
<path d="M33 66H43V120H33V66Z" fill="#11111F"/>
<path d="M41 88.558C41 87.1157 42.4803 86.1476 43.8016 86.7257L45 87.25L47 88.125L48 88.5625L48.5 88.7812L48.75 88.8906C48.9027 88.9574 49.0034 89.1061 49.0087 89.2727L49.9226 118.063C49.9627 119.324 48.8393 120.307 47.5948 120.099L42.6712 119.279C41.7068 119.118 41 118.283 41 117.306V88.558Z" fill="#41B6E6"/>
<defs>
<filter id="filter0_d_18_30" x="40.5554" y="43.5225" width="39.8695" height="42.0053" filterUnits="userSpaceOnUse" color-interpolation-filters="sRGB">
<feFlood flood-opacity="0" result="BackgroundImageFix"/>
<feColorMatrix in="SourceAlpha" type="matrix" values="0 0 0 0 0 0 0 0 0 0 0 0 0 0 0 0 0 0 127 0" result="hardAlpha"/>
<feOffset dy="4"/>
<feGaussianBlur stdDeviation="2"/>
<feComposite in2="hardAlpha" operator="out"/>
<feColorMatrix type="matrix" values="0 0 0 0 0 0 0 0 0 0 0 0 0 0 0 0 0 0 0.25 0"/>
<feBlend mode="normal" in2="BackgroundImageFix" result="effect1_dropShadow_18_30"/>
<feBlend mode="normal" in="SourceGraphic" in2="effect1_dropShadow_18_30" result="shape"/>
</filter>
</defs>
</svg>
